<svg width="59" height="59" viewBox="0 0 59 59" fill="none" xmlns="http://www.w3.org/2000/svg">
<path d="M29.1338 58.2599C45.224 58.2599 58.2675 45.218 58.2675 29.1299C58.2675 13.0419 45.224 0 29.1338 0C13.0437 0 0 13.0419 0 29.1299C0 45.218 13.0437 58.2599 29.1338 58.2599Z" fill="#FC8001"/>
<path d="M29.1879 1.62097C15.7456 1.62097 4.84314 12.5219 4.84314 25.9624C4.84314 27.2726 4.95121 28.5626 5.1471 29.8122C8.29488 21.5925 16.8939 15.6828 27.0128 15.6828C35.4632 15.6828 42.853 19.8027 46.8924 25.9489C46.9194 25.9489 46.9397 25.9489 46.9667 25.9489C49.5808 25.9489 51.783 26.7796 53.4176 28.198C53.4853 27.4617 53.5257 26.712 53.5257 25.9556C53.5257 12.5152 42.6302 1.62097 29.1879 1.62097Z" fill="#FDCC01"/>
<path d="M53.4248 28.1979C51.7833 26.7728 49.588 25.9489 46.9738 25.9489C46.9469 25.9489 46.9265 25.9489 46.8996 25.9489C39.7394 25.9894 32.2008 32.2099 30.0459 39.8824C28.8975 43.9686 29.5055 47.6426 31.4036 50.1957C30.6743 50.2634 29.9378 50.3038 29.1882 50.3038C17.0563 50.3038 6.99825 41.429 5.15415 29.8122C4.3233 31.9803 3.87073 34.3035 3.87073 36.7281C3.87073 42.6852 6.59295 48.0546 10.9701 51.8842C13.6721 54.0388 16.7591 55.7273 20.1163 56.8213C22.9601 57.7467 25.993 58.2532 29.1409 58.2532C37.8749 58.2532 45.7039 54.4035 51.0402 48.318C52.8775 46.2176 54.4244 43.8605 55.6066 41.294C55.7821 40.8278 55.9374 40.362 56.0659 39.8824C57.437 34.9923 56.2889 30.6834 53.4248 28.1979Z" fill="#FD0024"/>
</svg>