<svg width="15" height="18" viewBox="0 0 15 18" fill="none" xmlns="http://www.w3.org/2000/svg">
<path d="M3.98047 17.1313H10.9092C11.9712 17.1313 12.5718 16.5747 12.6157 15.5273L13.0771 5.01709H14.0439C14.4468 5.01709 14.7617 4.70947 14.7617 4.29932C14.7617 3.89648 14.4468 3.58887 14.0439 3.58887H10.9165V2.51221C10.9165 1.30371 10.1475 0.593262 8.8291 0.593262H6.0459C4.72754 0.593262 3.9585 1.30371 3.9585 2.51221V3.58887H0.845703C0.442871 3.58887 0.120605 3.89648 0.120605 4.29932C0.120605 4.70947 0.442871 5.01709 0.845703 5.01709H1.8125L2.27393 15.5273C2.31787 16.5747 2.91846 17.1313 3.98047 17.1313ZM5.60645 2.5708C5.60645 2.26318 5.81152 2.07275 6.15576 2.07275H8.71924C9.06348 2.07275 9.27588 2.26318 9.27588 2.5708V3.58887H5.60645V2.5708ZM5.0791 14.7949C4.76416 14.7949 4.54443 14.5898 4.53711 14.2749L4.31738 6.61377C4.31006 6.29883 4.52246 6.09375 4.85205 6.09375C5.16699 6.09375 5.38672 6.29883 5.39404 6.60645L5.61377 14.2676C5.62109 14.5752 5.40869 14.7949 5.0791 14.7949ZM7.44482 14.7949C7.12256 14.7949 6.89551 14.5825 6.89551 14.2749V6.60645C6.89551 6.29883 7.12256 6.09375 7.44482 6.09375C7.76709 6.09375 7.98682 6.29883 7.98682 6.60645V14.2749C7.98682 14.5825 7.76709 14.7949 7.44482 14.7949ZM9.81055 14.7949C9.47363 14.7949 9.26123 14.5825 9.26855 14.2676L9.48828 6.60645C9.49561 6.29883 9.71533 6.09375 10.0376 6.09375C10.3599 6.09375 10.5723 6.30615 10.5649 6.61377L10.3452 14.2749C10.3379 14.5898 10.1182 14.7949 9.81055 14.7949Z" fill="white"/>
</svg>
