<svg width="40" height="40" viewBox="0 0 40 40" fill="none" xmlns="http://www.w3.org/2000/svg">
<rect width="40" height="40" rx="8" fill="#EB5757" fill-opacity="0.12"/>
<path d="M15.3809 30.3418H24.6191C26.0352 30.3418 26.8359 29.5996 26.8945 28.2031L27.5098 14.1895H28.7988C29.3359 14.1895 29.7559 13.7793 29.7559 13.2324C29.7559 12.6953 29.3359 12.2852 28.7988 12.2852H24.6289V10.8496C24.6289 9.23828 23.6035 8.29102 21.8457 8.29102H18.1348C16.377 8.29102 15.3516 9.23828 15.3516 10.8496V12.2852H11.2012C10.6641 12.2852 10.2344 12.6953 10.2344 13.2324C10.2344 13.7793 10.6641 14.1895 11.2012 14.1895H12.4902L13.1055 28.2031C13.1641 29.5996 13.9648 30.3418 15.3809 30.3418ZM17.5488 10.9277C17.5488 10.5176 17.8223 10.2637 18.2812 10.2637H21.6992C22.1582 10.2637 22.4414 10.5176 22.4414 10.9277V12.2852H17.5488V10.9277ZM16.8457 27.2266C16.4258 27.2266 16.1328 26.9531 16.123 26.5332L15.8301 16.3184C15.8203 15.8984 16.1035 15.625 16.543 15.625C16.9629 15.625 17.2559 15.8984 17.2656 16.3086L17.5586 26.5234C17.5684 26.9336 17.2852 27.2266 16.8457 27.2266ZM20 27.2266C19.5703 27.2266 19.2676 26.9434 19.2676 26.5332V16.3086C19.2676 15.8984 19.5703 15.625 20 15.625C20.4297 15.625 20.7227 15.8984 20.7227 16.3086V26.5332C20.7227 26.9434 20.4297 27.2266 20 27.2266ZM23.1543 27.2266C22.7051 27.2266 22.4219 26.9434 22.4316 26.5234L22.7246 16.3086C22.7344 15.8984 23.0273 15.625 23.457 15.625C23.8867 15.625 24.1699 15.9082 24.1602 16.3184L23.8672 26.5332C23.8574 26.9531 23.5645 27.2266 23.1543 27.2266Z" fill="#EB5757"/>
</svg>
